<svg xmlns="http://www.w3.org/2000/svg" viewBox="0 0 341.36 116.13"><defs><style>.cls-1{fill:#f1f1f1;}</style></defs><g id="Layer_2" data-name="Layer 2"><g id="Layer_5" data-name="Layer 5"><path class="cls-1" d="M90.22,6c-.34-1.68-1.35-2.26-3-1.72a9.25,9.25,0,0,0-2,1c-.88.54-1.71,1.1-2.48,1.67a27.75,27.75,0,0,0-2.27,1.87q-2.13,1.82-4.14,3.74t-3.84,3.94a289.16,289.16,0,0,0-28.9,38.18Q39.7,60.79,36,66.91T28.79,79.38a6.79,6.79,0,0,1-.4.56c-.14.17-.3.39-.51.66v-.71q.91-3.84,1.77-7.73c.57-2.59,1.2-5.17,1.87-7.73q2.32-9.2,4.65-18.23T40.51,28l1.21-5.45c.41-1.82.74-3.67,1-5.56.14-.81.24-1.62.31-2.43a10.36,10.36,0,0,0-.1-2.42A15.37,15.37,0,0,0,42.33,10a3.62,3.62,0,0,0-4.24-2.22,6.79,6.79,0,0,0-1.22.3c-.4.13-.77.27-1.11.4A23.48,23.48,0,0,0,29.4,12.3a55.63,55.63,0,0,0-4.35,4c-1.34,1.38-2.66,2.85-3.94,4.4a125.66,125.66,0,0,0-7.67,10.15A105.41,105.41,0,0,0,7,41.7,68.42,68.42,0,0,0,2.42,52.11,50,50,0,0,0,.66,58.67,35.41,35.41,0,0,0,0,65.54,30.52,30.52,0,0,0,.2,69,16.41,16.41,0,0,0,1,72.41a10.34,10.34,0,0,0,7.27,6.67,16.29,16.29,0,0,0,6.27.61l1.21-.21a6.69,6.69,0,0,0,1.21-.3c.61-.2.84-.54.71-1s-.57-.71-1.31-.5A11.33,11.33,0,0,1,13,78a27.39,27.39,0,0,1-3.23-.4A9,9,0,0,1,2.42,70.7a5.88,5.88,0,0,1-.25-1.22c0-.4-.08-.81-.15-1.21a18,18,0,0,1-.2-3.79c.07-1.24.2-2.51.4-3.79a42.17,42.17,0,0,1,1.52-6.51,58.12,58.12,0,0,1,2.42-6.32,110.29,110.29,0,0,1,8.14-15A112.4,112.4,0,0,1,24.65,19.37q1.41-1.52,2.88-2.88c1-.91,2-1.8,3.08-2.67a23.85,23.85,0,0,1,2.68-2,16.86,16.86,0,0,1,3-1.47,10.55,10.55,0,0,1,2.12-.6,1.67,1.67,0,0,1,1.82,1.11,5.79,5.79,0,0,1,.2,1.21v1.26a7.51,7.51,0,0,1-.1,1.27c-.14.94-.29,1.85-.45,2.72S39.5,19.11,39.3,20q-2,8.49-4.09,16.82T31,53.52Q29.4,59.69,27.88,65.8T25.16,78.17q-.4,2-.81,4c-.27,1.31-.58,2.65-.91,4l-.61,3.34a1.42,1.42,0,0,0,2.63,1L26.37,89c1.21-2.22,2.41-4.44,3.58-6.67s2.41-4.41,3.69-6.56q3-5.16,6.11-10.21c2.06-3.36,4.16-6.77,6.32-10.2A297,297,0,0,1,71.22,21.09q2.32-2.82,4.85-5.45c1.69-1.75,3.47-3.44,5.36-5.06A33.6,33.6,0,0,1,86,7.05c.27-.14.54-.29.81-.46a1.75,1.75,0,0,1,.91-.25,1.2,1.2,0,0,1,.15.76,3.35,3.35,0,0,1-.15.66l-.6,2.42L82.84,24.73Q79,38.07,75.32,51.3T68.09,78q-2.32,9-4.7,17.88c-.7,2.64-1.47,5.35-2.17,8-.59,2.24-1.37,4.43-1.94,6.67a1.57,1.57,0,0,0,.61,1.79,1.91,1.91,0,0,0,1.33.18,2.24,2.24,0,0,0,1.84-1.73c.4-1.91,1-3.78,1.45-5.69q2.07-8,4.19-16.22,3.22-12,6.46-23.94T81.63,41q1.92-7.17,3.94-14.19t3.74-14.19a31,31,0,0,0,.91-4.45A12.5,12.5,0,0,0,90.22,6Z"></path><path class="cls-1" d="M86.28,61.1a26,26,0,0,1,.65-4.4,49.7,49.7,0,0,1,1.47-5.15,44,44,0,0,1,2.17-5.25q1.26-2.58,2.68-4.9c.54-.81,1.07-1.6,1.61-2.38s1.08-1.53,1.62-2.27a4.24,4.24,0,0,1,.66-.86l.75-.76a4.34,4.34,0,0,1,1.12-.8c1.21-.54,2-.14,2.52,1.21a3.82,3.82,0,0,1,0,2.12,8.77,8.77,0,0,0-.35,1.06,8.8,8.8,0,0,1-.36,1.06,32.35,32.35,0,0,1-6.36,9.7,10.34,10.34,0,0,1-1.11,1c-.41.3-.81.62-1.21,1a1.73,1.73,0,0,0-.81,1.11c-.41,1.35-.78,2.71-1.11,4.09a28.43,28.43,0,0,0-.71,4.19c0,.41,0,.81,0,1.22s0,.81,0,1.21v.61A1.62,1.62,0,0,0,91.93,65a6.86,6.86,0,0,0,2-.91l1.82-1.21a17.38,17.38,0,0,0,1.72-1.32,37.62,37.62,0,0,0,3.23-2.77q1.52-1.47,3-3c.74-.8,1.5-1.61,2.28-2.42s1.53-1.58,2.27-2.32a9.62,9.62,0,0,1,1.11-.91,1,1,0,0,1,1.21.2.87.87,0,0,1,.21,1.31,5.91,5.91,0,0,1-.71.91c-.88,1-1.74,1.84-2.58,2.68S105.84,57,105,58c-1.49,1.55-3,3-4.55,4.44a38.11,38.11,0,0,1-5,3.84c-.4.27-.81.52-1.21.76a13.51,13.51,0,0,1-1.32.65,3.9,3.9,0,0,1-4,0,5.28,5.28,0,0,1-2.27-3l-.3-1.51a5.22,5.22,0,0,1-.1-1.06ZM99.81,36.35a13.72,13.72,0,0,0-2.32,3,62.72,62.72,0,0,0-3,5.81c-.14.33-.29.69-.46,1.06a5.07,5.07,0,0,0-.35,1.36A40.19,40.19,0,0,0,97.24,43a24.47,24.47,0,0,0,2.57-4.95,2.07,2.07,0,0,0,.21-1.51Z"></path><path class="cls-1" d="M123.45,64.63c.14,0,.34-.15.61-.45a12.75,12.75,0,0,0,.81-1q.41-.56.75-1.11c.24-.37.39-.62.46-.76a55.47,55.47,0,0,0,3.94-7q1-2.13,1.92-4.24c.6-1.42,1.21-2.83,1.82-4.25a2.3,2.3,0,0,1,.4-.81,1,1,0,0,1,1.72.21,1.06,1.06,0,0,1,.1.45,1,1,0,0,0,.1.46,11.44,11.44,0,0,0,2,4.14,5.07,5.07,0,0,0,5.66,2.12c.47-.14.92-.29,1.36-.45s.89-.32,1.37-.46l.75-.35c.24-.1.49-.22.76-.36a3.73,3.73,0,0,1,1.11-.2,1.06,1.06,0,0,1,.76.61,1,1,0,0,1-.05,1,1.09,1.09,0,0,1-.4.5A33.86,33.86,0,0,1,146,54.28a8.37,8.37,0,0,1-3.58.55,7.29,7.29,0,0,1-5.56-2.72c-.4-.54-.78-1.08-1.11-1.62s-.71-1.08-1.11-1.62a1.51,1.51,0,0,0-.41.71,4.43,4.43,0,0,1-.3.81q-1.41,3.22-2.93,6.41T127.8,63l-1.52,2.42a12.72,12.72,0,0,1-1.11,1.21,3.18,3.18,0,0,1-2.17.91,3,3,0,0,1-2.17-1,3.84,3.84,0,0,1-1.07-1.41c-.23-.54-.45-1.08-.65-1.62l-.61-2.12c-.27,0-.44.09-.5.25a1.38,1.38,0,0,1-.31.46c-.8,1.14-1.6,2.26-2.37,3.33s-1.57,2.19-2.37,3.34a14.17,14.17,0,0,1-1.12,1.36l-1.21,1.36a6.14,6.14,0,0,1-1.41,1.22,2.65,2.65,0,0,1-1.92.25,2.27,2.27,0,0,1-1.42-1.26,5.06,5.06,0,0,1-.6-1.82,16.49,16.49,0,0,1-.2-5.16A54.68,54.68,0,0,1,109,48.37a13.56,13.56,0,0,1,.8-1.72,2.33,2.33,0,0,1,.81-.81c.81-.6,1.35-.37,1.62.71.06.27.13.54.2.81a1.59,1.59,0,0,1,0,.81c-.2.94-.44,1.9-.71,2.88s-.54,1.93-.81,2.87c-.4,1.82-.79,3.63-1.16,5.41s-.75,3.59-1.16,5.4a14.2,14.2,0,0,0-.4,4.85c0,.68.18,1,.55.81a4,4,0,0,0,1.27-.86,11.53,11.53,0,0,0,1.31-1.46,9.61,9.61,0,0,1,.81-1c1-1.42,2-2.85,2.93-4.29s1.88-2.88,2.83-4.3a2.47,2.47,0,0,0,.3-.66,2.56,2.56,0,0,1,.3-.65,1.6,1.6,0,0,1,1.26-.86,1.37,1.37,0,0,1,1.27.76c.13.27.25.54.35.8l.35.91L123,63.62a2.56,2.56,0,0,1,.15.61C123.13,64.5,123.25,64.63,123.45,64.63Z"></path><path class="cls-1" d="M164.37,68a4.73,4.73,0,0,0,2.22-1.32c.81-.74,1.62-1.46,2.42-2.17s1.62-1.43,2.43-2.17q3.33-2.93,6.31-6A75.11,75.11,0,0,1,184,50.69a3.88,3.88,0,0,1,1.11-.4c.33-.07.64.13.91.6a.76.76,0,0,1,0,.91,2.41,2.41,0,0,1-.81.81q-3.24,2.63-5.91,5.25c-1.79,1.76-3.62,3.51-5.51,5.26-.74.74-1.48,1.45-2.22,2.12s-1.48,1.38-2.22,2.12a9,9,0,0,1-1.06.91c-.38.27-.73.54-1.06.81a7.48,7.48,0,0,1-2,1.21A2.67,2.67,0,0,1,161.44,69a4.59,4.59,0,0,1-.61-2.43,16.23,16.23,0,0,1,.1-3.13,25,25,0,0,1,.61-3,43.52,43.52,0,0,1,1.21-4.29A25.45,25.45,0,0,1,164.57,52a10.47,10.47,0,0,1,2.83-3.34,6.5,6.5,0,0,1,3.33-1.31,4.19,4.19,0,0,1,3.64,1.21,3.83,3.83,0,0,1,1.11,3.13,2.24,2.24,0,0,1-.1.81,1.18,1.18,0,0,1-1,.71,1,1,0,0,1-.91-.51.79.79,0,0,1-.25-.45.93.93,0,0,0-.26-.46,1.56,1.56,0,0,0-1.92-.91,2.44,2.44,0,0,0-1.11.51,4.47,4.47,0,0,0-1.82,2,40.21,40.21,0,0,0-2.67,6.21A33,33,0,0,0,164,66.25a2.08,2.08,0,0,0,.41,1.82Z"></path><path class="cls-1" d="M186.9,50.69c.87-1.08,1.71-1.41,2.52-1a2.14,2.14,0,0,1,1.21,2.22,6.52,6.52,0,0,1,0,1.82c-.1.61-.22,1.21-.35,1.82l-.2,1.11a10.34,10.34,0,0,0,3.53-1.21,22,22,0,0,0,2.83-1.87,18.69,18.69,0,0,0,2.07-1.87,11.87,11.87,0,0,1,1.27-1.21,1.1,1.1,0,0,1,1.16-.15c.43.17.52.52.25,1.06a9,9,0,0,1-1.31,1.72,19.26,19.26,0,0,1-2.63,2.32,26,26,0,0,1-3.64,2.27,14.55,14.55,0,0,1-4.34,1.47l-1,1.61c-.34.54-.68,1.08-1,1.62a13.17,13.17,0,0,1-1.82,2.22,4,4,0,0,1-1.62,1,2.37,2.37,0,0,1-3.23-1.11,5.1,5.1,0,0,1-.81-2.73A18.38,18.38,0,0,1,182,52.11a6.56,6.56,0,0,1,1.11-1.42c1.07-.81,2-.57,2.72.71a1.6,1.6,0,0,0,.21.5ZM186.59,59l-.2-.21a3.05,3.05,0,0,1-1.62-3v-.6a.8.8,0,0,1,0-.31c0-.06,0-.13-.25-.2a17.44,17.44,0,0,0-1.21,3.44c-.27,1.14-.51,2.29-.71,3.43a3.74,3.74,0,0,0-.1.81,1.83,1.83,0,0,0,.3.91A6.45,6.45,0,0,0,185,61.3q.75-1.11,1.56-2.22Zm2-7.58c-.2,0-.3,0-.3.1a9.16,9.16,0,0,0-1.62,3.33,1.62,1.62,0,0,0-.05.66,4.62,4.62,0,0,1,.05.76c0,.34.21.54.61.6a.49.49,0,0,0,.61-.3,11.2,11.2,0,0,0,1-4.44,1.5,1.5,0,0,0-.21-.61Z"></path><path class="cls-1" d="M190.39,97.15c0-.48.09-1,.13-1.42l.12-1.45c.06-.67.1-1.35.19-2q.31-2.27.81-4.59.81-3.84,1.62-7.58t1.62-7.58q2-9.8,4.39-19.29t5-19.1Q205.49,29.49,207,25t3-9A103.4,103.4,0,0,1,215.48,2.3a5.94,5.94,0,0,1,.46-.91c.17-.27.35-.54.55-.81A1.28,1.28,0,0,1,217.76,0a1.41,1.41,0,0,1,1,1.06,5.74,5.74,0,0,1,.3,1.82,14.79,14.79,0,0,1-.1,3c-.14,1-.27,1.93-.4,2.88A57.09,57.09,0,0,1,216.7,17q-1.22,4-2.63,7.93c-.94,2.43-1.94,4.82-3,7.17s-2.14,4.72-3.28,7.07l-3.94,8.49a16.65,16.65,0,0,0-1.22,3.13q-.81,3.54-1.71,7.13T199.22,65q-.81,3.22-1.42,6.36t-1.41,6.37q-.81,3.23-1.51,6.36c-.48,2.09-.88,4.21-1.22,6.37-.13,1.07-.25,2.13-.35,3.18-.19,1.95-.7,4-.12,5.91a9.07,9.07,0,0,1,.26.89,1.68,1.68,0,0,1-.53,1.56,1.32,1.32,0,0,1-1.77-.33,3,3,0,0,1-.59-1.17A9.19,9.19,0,0,1,190.39,97.15ZM216.9,3.61a4.86,4.86,0,0,0-.51.91Q213.77,11.3,211.85,18q-1.42,4.84-2.88,9.7t-2.78,9.8l-.3,1.51a4,4,0,0,0,.91-1.41c.53-1.28,1.11-2.53,1.71-3.74s1.18-2.46,1.72-3.74q1.72-4.14,3.18-8.28T216,13.31a45.89,45.89,0,0,0,1-4.75,27.85,27.85,0,0,0,.25-5.05Z"></path><path class="cls-1" d="M203.24,97.14l.06-.94c0-.51.07-1,.11-1.55.06-.78.25-1.6.25-2.39q.32-2.27.81-4.59.81-3.84,1.62-7.58t1.62-7.58q2-9.8,4.39-19.29t5-19.1q1.22-4.63,2.73-9.14t3-9A102.1,102.1,0,0,1,228.32,2.3a5.14,5.14,0,0,1,.45-.91,9.83,9.83,0,0,1,.56-.81A1.26,1.26,0,0,1,230.59,0a1.39,1.39,0,0,1,1,1.06,5.74,5.74,0,0,1,.3,1.82,14.79,14.79,0,0,1-.1,3c-.14,1-.27,1.93-.4,2.88A55.78,55.78,0,0,1,229.53,17q-1.22,4-2.63,7.93c-.94,2.43-1.94,4.82-3,7.17s-2.14,4.72-3.28,7.07l-3.94,8.49a16.65,16.65,0,0,0-1.22,3.13q-.81,3.54-1.71,7.13T212.05,65q-.81,3.22-1.41,6.36t-1.42,6.37q-.81,3.23-1.51,6.36t-1.22,6.37c-.13,1.07-.25,2.13-.35,3.18s-.22,2.1-.35,3.18a7.48,7.48,0,0,0,.05,2.06,14.89,14.89,0,0,1,.49,1.94,1.57,1.57,0,0,1-.23.85,1.16,1.16,0,0,1-.84.51c-.75.1-1.31-.56-1.64-1.15a6.11,6.11,0,0,1-.41-3.49ZM229.73,3.61a4.86,4.86,0,0,0-.51.91Q226.6,11.3,224.68,18q-1.43,4.84-2.88,9.7T219,37.46l-.3,1.51a3.89,3.89,0,0,0,.91-1.41c.54-1.28,1.11-2.53,1.71-3.74s1.18-2.46,1.72-3.74q1.73-4.14,3.18-8.28t2.58-8.49a45.89,45.89,0,0,0,1-4.75A27,27,0,0,0,230,3.51Z"></path><path class="cls-1" d="M222.35,61.1a27.2,27.2,0,0,1,.66-4.4,49.7,49.7,0,0,1,1.47-5.15,42.4,42.4,0,0,1,2.17-5.25q1.26-2.58,2.68-4.9c.53-.81,1.07-1.6,1.61-2.38s1.08-1.53,1.62-2.27a4.61,4.61,0,0,1,.65-.86l.76-.76a4.47,4.47,0,0,1,1.11-.8c1.22-.54,2.06-.14,2.53,1.21a3.82,3.82,0,0,1,0,2.12,8.77,8.77,0,0,0-.35,1.06,8.8,8.8,0,0,1-.36,1.06,32.35,32.35,0,0,1-6.36,9.7,10.34,10.34,0,0,1-1.11,1c-.41.3-.81.62-1.22,1a1.75,1.75,0,0,0-.8,1.11c-.41,1.35-.78,2.71-1.12,4.09a29.79,29.79,0,0,0-.7,4.19c0,.41,0,.81,0,1.22s.05.81.05,1.21v.61A1.62,1.62,0,0,0,228,65a6.86,6.86,0,0,0,2-.91l1.82-1.21a17.38,17.38,0,0,0,1.72-1.32,37.62,37.62,0,0,0,3.23-2.77q1.51-1.47,3-3c.74-.8,1.5-1.61,2.28-2.42s1.53-1.58,2.27-2.32a9.62,9.62,0,0,1,1.11-.91,1,1,0,0,1,1.21.2.86.86,0,0,1,.2,1.31,6,6,0,0,1-.7.91c-.88,1-1.74,1.84-2.58,2.68S241.92,57,241,58q-2.22,2.33-4.54,4.44a38.11,38.11,0,0,1-4.95,3.84c-.41.27-.81.52-1.21.76a13.51,13.51,0,0,1-1.32.65,3.9,3.9,0,0,1-4,0,5.28,5.28,0,0,1-2.27-3l-.3-1.51a5.22,5.22,0,0,1-.11-1.06Zm13.54-24.75a13.72,13.72,0,0,0-2.32,3,62.72,62.72,0,0,0-3,5.81c-.14.33-.29.69-.46,1.06a4.72,4.72,0,0,0-.35,1.36A40.19,40.19,0,0,0,233.32,43a24.47,24.47,0,0,0,2.57-4.95,2,2,0,0,0,.2-1.51Z"></path><path class="cls-1" d="M243.67,68a4.68,4.68,0,0,0,2.22-1.32c.81-.74,1.62-1.46,2.43-2.17s1.61-1.43,2.42-2.17q3.33-2.93,6.32-6a73.42,73.42,0,0,1,6.21-5.66,3.88,3.88,0,0,1,1.11-.4c.34-.07.64.13.91.6a.76.76,0,0,1,0,.91,2.25,2.25,0,0,1-.81.81q-3.23,2.63-5.91,5.25c-1.78,1.76-3.62,3.51-5.5,5.26-.75.74-1.49,1.45-2.23,2.12s-1.48,1.38-2.22,2.12a9,9,0,0,1-1.06.91c-.37.27-.72.54-1.06.81a7.41,7.41,0,0,1-2,1.21A2.68,2.68,0,0,1,240.74,69a4.69,4.69,0,0,1-.61-2.43,16.22,16.22,0,0,1,.11-3.13,23.18,23.18,0,0,1,.6-3,43.52,43.52,0,0,1,1.21-4.29A26.36,26.36,0,0,1,243.87,52a10.6,10.6,0,0,1,2.83-3.34A6.56,6.56,0,0,1,250,47.36a4.17,4.17,0,0,1,3.63,1.21,3.76,3.76,0,0,1,1.11,3.13,2,2,0,0,1-.1.81,1.17,1.17,0,0,1-1,.71,1,1,0,0,1-.91-.51.85.85,0,0,1-.25-.45.91.91,0,0,0-.25-.46,1.56,1.56,0,0,0-1.92-.91,2.35,2.35,0,0,0-1.11.51,4.36,4.36,0,0,0-1.82,2,40.27,40.27,0,0,0-2.68,6.21,32.94,32.94,0,0,0-1.46,6.62,2.08,2.08,0,0,0,.4,1.82Z"></path><path class="cls-1" d="M265.49,51.4c.07-.2.07-.24,0-.1s-.15.32-.25.55l-.3.71a1.81,1.81,0,0,1-.26.46,1.11,1.11,0,0,1-1.31.3.94.94,0,0,1-.51-1.21,1.5,1.5,0,0,1,.21-.61q1.6-4.44,3-9.65t2.83-9.75l2.72-8.79a.94.94,0,0,0,.11-.45,1.75,1.75,0,0,1,.1-.56,7.35,7.35,0,0,0-2.07.1l-2,.41q-3.74.6-7.42,1.26c-2.46.44-4.93.83-7.43,1.16-1.68.27-3.35.49-5,.66a26.91,26.91,0,0,1-5,.05,2.09,2.09,0,0,0-.6.1,1.9,1.9,0,0,1-.61.1,1.11,1.11,0,0,1-1.16-.4,1.18,1.18,0,0,1-.05-1.21,4,4,0,0,1,.81-1.11c.6-.61,1.14-.58,1.61.1a1.37,1.37,0,0,0,1.21.6h1.52a82.56,82.56,0,0,0,9.29-.91q4.35-.71,8.59-1.36t8.49-1.36a1.82,1.82,0,0,0,.5-.21l.21-.4c.06-.14.13-.27.2-.4q1-3.54,1.92-7.13t1.82-7.12A5.79,5.79,0,0,0,277,4a4.66,4.66,0,0,1,.25-1.21,6.4,6.4,0,0,1,.4-1.22.85.85,0,0,1,1.12-.5.81.81,0,0,1,.7.81V3a5.22,5.22,0,0,1-.1,1.06l-.91,4.54c-.4,1.76-.81,3.52-1.21,5.31s-.77,3.55-1.11,5.3v.71h.81l10.3-1.52,7.88-1.21,4.25-.6c1.41-.21,2.82-.37,4.24-.51l3.64-.4,3.63-.41,9.4-.91c1-.13,2-.21,3-.25s2-.08,3-.15c1.68-.14,3.35-.22,5-.25s3.32-.09,5-.16h.91a4.58,4.58,0,0,1,.91.11c.67.13,1,.47,1,1A1.16,1.16,0,0,1,338,15.84h-1.21c-2.36.07-4.69.1-7,.1s-4.62.07-7,.2-4.44.29-6.66.46-4.45.35-6.67.55c-1.62.14-3.23.3-4.85.51l-4.85.6q-2.73.3-5.46.66t-5.45.76L277.11,21.5l-.76.15c-.24,0-.52.08-.86.15-.2.94-.4,1.83-.6,2.68s-.41,1.7-.61,2.57l-3.94,15.46q-2.32,8.68-4.65,17.73T261.05,78L256.2,97.06q-.7,2.94-1.22,5.86c-.28,1.67-.5,3.34-.64,5a21.35,21.35,0,0,0-.1,3.2,6.76,6.76,0,0,0,.42,2.1,3.88,3.88,0,0,0,.51.88,2.36,2.36,0,0,1,.54.86,1,1,0,0,1-.41,1,1.31,1.31,0,0,1-1.53-.21,4.67,4.67,0,0,1-1.61-3.23,19.23,19.23,0,0,1-.1-3.48c.06-1.18.16-2.35.3-3.49q.51-3.73,1.26-7.32c.51-2.4,1.06-4.77,1.67-7.13q1.22-4.55,2.32-8.94t2.22-8.94q1.43-5.25,2.83-10.91T265.49,51.4Z"></path><path class="cls-1" d="M296.91,50.69c.67-.67,1.21-.79,1.62-.35a1.16,1.16,0,0,1,0,1.56,2.86,2.86,0,0,1-.71.81q-3.54,3.43-7.12,6.82c-2.4,2.26-4.8,4.5-7.23,6.72-.94.88-1.88,1.7-2.83,2.47s-1.88,1.54-2.82,2.28a6.93,6.93,0,0,1-2.23,1.21,2,2,0,0,1-2.93-1.41,5.83,5.83,0,0,1-.3-1.82c0-.68,0-1.33-.05-2a13.06,13.06,0,0,1,.05-2q.51-4.46,1.31-8.74a64.31,64.31,0,0,1,2.23-8.54l.91-2.42a4.13,4.13,0,0,1,.8-1.11,1.38,1.38,0,0,1,1.52-.31.55.55,0,0,1,.35.51,3.83,3.83,0,0,1,0,1,4.3,4.3,0,0,1-.2,1c-.1.3-.19.55-.25.76a80.31,80.31,0,0,0-2.53,10.45q-.9,5.31-1.61,10.76c0,.54.33.69,1,.46a5.88,5.88,0,0,0,1.41-.66c.74-.54,1.45-1.06,2.12-1.57s1.35-1,2-1.56c1.35-1.21,2.68-2.43,4-3.64l4-3.64q1.92-1.71,3.74-3.53T296.91,50.69ZM279.84,40.18c-.88,0-1.25-.43-1.12-1.31a1.13,1.13,0,0,1,.31-.81l1-1c.3-.3.62-.58,1-.86a1.1,1.1,0,0,1,1.36-.05,1.56,1.56,0,0,1,.66,1.37,1.59,1.59,0,0,0-.15.45.93.93,0,0,1-.26.46A5.51,5.51,0,0,1,280.24,40a.79.79,0,0,1-.5.1Z"></path><path class="cls-1" d="M300.24,50.69c.88-1.08,1.72-1.41,2.53-1A2.14,2.14,0,0,1,304,51.9a6.52,6.52,0,0,1-.05,1.82c-.1.61-.22,1.21-.35,1.82l-.21,1.11a10.39,10.39,0,0,0,3.54-1.21,22,22,0,0,0,2.83-1.87,18.69,18.69,0,0,0,2.07-1.87,12.05,12.05,0,0,1,1.26-1.21,1.1,1.1,0,0,1,1.16-.15c.44.17.53.52.26,1.06a9.13,9.13,0,0,1-1.32,1.72,19.12,19.12,0,0,1-2.62,2.32,26,26,0,0,1-3.64,2.27,14.74,14.74,0,0,1-4.34,1.47l-1,1.61c-.34.54-.68,1.08-1,1.62a13.67,13.67,0,0,1-1.82,2.22,4,4,0,0,1-1.62,1,2.37,2.37,0,0,1-3.23-1.11,5.1,5.1,0,0,1-.81-2.73,18.47,18.47,0,0,1,2.22-9.69,6.88,6.88,0,0,1,1.11-1.42c1.08-.81,2-.57,2.73.71a1.75,1.75,0,0,0,.2.5Zm-.3,8.29-.2-.21a3.05,3.05,0,0,1-1.62-3v-.6a.8.8,0,0,1,.05-.31c0-.06-.05-.13-.25-.2a17.44,17.44,0,0,0-1.21,3.44c-.27,1.14-.51,2.29-.71,3.43a3.21,3.21,0,0,0-.1.81,1.83,1.83,0,0,0,.3.91,6.41,6.41,0,0,0,2.17-1.92c.51-.74,1-1.48,1.57-2.22Zm2-7.58c-.2,0-.3,0-.3.1A9,9,0,0,0,300,54.83a1.33,1.33,0,0,0-.05.66,6.06,6.06,0,0,1,.05.76c0,.34.2.54.61.6a.48.48,0,0,0,.6-.3,11.2,11.2,0,0,0,1-4.44,1.45,1.45,0,0,0-.2-.61Z"></path><path class="cls-1" d="M323.58,47a10.8,10.8,0,0,0-1.67,1.62,11.78,11.78,0,0,0-1.16,1.72l-1.82,3c-.6,1-1.18,2-1.72,3l-6.06,10.91-.6.91a1.35,1.35,0,0,1-1.22.4,2.56,2.56,0,0,1-.75-.3.65.65,0,0,1-.36-.61v-.9a5.26,5.26,0,0,1,.1-.91c.21-.95.41-1.86.61-2.73s.44-1.79.71-2.73l5.15-17.58c.2-.67.47-1.45.81-2.32a1.29,1.29,0,0,1,1.51-.91,2.92,2.92,0,0,1,.91.35.94.94,0,0,1,.41.86,5.32,5.32,0,0,1-.21,1.21l-.6,2.43c-.2.81-.44,1.61-.71,2.42l-2.73,9.4a1.86,1.86,0,0,0-.1,1l.91-1.52c.61-1.14,1.16-2.22,1.67-3.23s1.09-2.09,1.77-3.23a18,18,0,0,1,3-3.94l.6-.61a2.76,2.76,0,0,1,.71-.5,1.87,1.87,0,0,1,3,.91,10.87,10.87,0,0,1,.61,2.32,20,20,0,0,1,.2,2.73c0,.87,0,1.78.1,2.72.07.75.12,1.5.15,2.28a18.76,18.76,0,0,0,.25,2.27,8.92,8.92,0,0,0,.51,2,.66.66,0,0,0,.91.51l.91-.36a3.29,3.29,0,0,0,.81-.45,22.91,22.91,0,0,0,2.93-2.43c.94-.94,1.93-1.9,3-2.88s2-1.93,3-2.88a6,6,0,0,1,.91-.7.79.79,0,0,1,1.11.1,1,1,0,0,1,.15,1,1.87,1.87,0,0,1-.46,1c-.74.74-1.39,1.38-2,1.92s-1.09,1-1.56,1.51-.93.91-1.37,1.32-.89.84-1.36,1.31A14.56,14.56,0,0,1,333,59.78c-.54.41-1.07.85-1.61,1.32a2.77,2.77,0,0,1-1.11.7c-.41.14-.85.27-1.32.41a2.79,2.79,0,0,1-3.63-1.31,8.22,8.22,0,0,1-1-3.24,16.54,16.54,0,0,1-.26-2.12c0-.67-.08-1.38-.15-2.12-.07-.94-.1-1.85-.1-2.73s0-1.78-.1-2.73a4,4,0,0,0-.05-.6q-.06-.3-.15-.81Z"></path></g></g></svg>